<svg id="Layer_1" enable-background="new 0 0 511.375 511.375" height="512" viewBox="0 0 511.375 511.375" width="512" xmlns="http://www.w3.org/2000/svg"><g><path d="m511.375 255.687-57.89-64.273 9.064-86.045-84.65-17.921-43.18-75.011-79.031 35.32-79.031-35.32-43.18 75.011-84.65 17.921 9.063 86.045-57.89 64.273 57.889 64.273-9.063 86.045 84.65 17.921 43.18 75.011 79.031-35.321 79.031 35.321 43.18-75.011 84.65-17.921-9.064-86.045zm-255.687 175.071-66.544 29.74-36.35-63.146-71.3-15.095 7.63-72.444-48.749-54.125 48.749-54.125-7.63-72.444 71.3-15.095 36.35-63.146 66.544 29.739 66.543-29.739 36.35 63.146 71.301 15.095-7.63 72.444 48.748 54.124-48.749 54.125 7.63 72.443-71.301 15.095-36.35 63.146z"/><path d="m340.497 179.725-107.203 120.104-66.734-66.734-21.213 21.213 89.186 89.186 128.345-143.792z"/></g></svg>