<?xml version="1.0" encoding="iso-8859-1"?>
<!-- Generator: Adobe Illustrator 16.0.0, SVG Export Plug-In . SVG Version: 6.00 Build 0)  -->
<!DOCTYPE svg PUBLIC "-//W3C//DTD SVG 1.1//EN" "http://www.w3.org/Graphics/SVG/1.1/DTD/svg11.dtd">
<svg version="1.1" id="Capa_1" xmlns="http://www.w3.org/2000/svg" xmlns:xlink="http://www.w3.org/1999/xlink" x="0px" y="0px"
	 width="56.13px" height="56.13px" viewBox="0 0 56.13 56.13" style="enable-background:new 0 0 56.13 56.13;" xml:space="preserve"
	>
<g>
	<path d="M31.214,33.395c3.189,0,9.165-0.644,13.357-4.947c2.932-3.009,4.349-7.154,4.212-12.317l-0.088-2.626l-2.43-0.169
		c0.188-2.286-0.293-5.168-2.267-8.582L42.84,2.742l-2.213,0.697c-0.188,0.06-3.305,1.07-6.056,3.541
		c-1.187-1.981-2.819-3.858-4.902-5.623L28.065,0l-1.602,1.357c-2.083,1.765-3.718,3.644-4.903,5.623
		c-2.75-2.471-5.867-3.481-6.056-3.541L13.292,2.74L12.13,4.751c-1.973,3.414-2.453,6.296-2.265,8.582l-2.43,0.169l-0.088,2.626
		c-0.137,5.163,1.28,9.309,4.213,12.317c4.191,4.307,10.167,4.947,13.357,4.947c0.228,0,0.434-0.005,0.617-0.01v2.143h-9.476
		l1.917,20.604h20.158l1.918-20.604h-9.453v-2.143C30.781,33.39,30.987,33.395,31.214,33.395z M40.102,10.042
		c0.48,1.435,0.548,2.719,0.201,3.843c-1.16,0.274-2.31,0.646-3.414,1.133c0-0.041,0.002-0.084,0-0.126
		c-0.011-0.509-0.049-1.013-0.106-1.511C37.554,11.862,38.914,10.761,40.102,10.042z M42.829,19.243
		c-0.335,2.14-1.139,3.871-2.401,5.169c-2.029,2.084-4.975,2.826-7.146,3.078C34.125,24.15,36.473,20.088,42.829,19.243z
		 M16.03,10.042c1.189,0.72,2.549,1.82,3.322,3.339c-0.059,0.499-0.099,1.002-0.108,1.512c-0.001,0.041,0.001,0.084,0,0.127
		c-1.107-0.487-2.255-0.86-3.415-1.135C15.482,12.76,15.548,11.476,16.03,10.042z M15.706,24.412
		c-1.263-1.298-2.066-3.029-2.402-5.169c6.355,0.845,8.704,4.907,9.547,8.247C20.681,27.238,17.736,26.496,15.706,24.412z
		 M34.496,40.588l-0.976,10.48H22.589l-0.975-10.48H34.496z M28.065,23.433c-1.469-2.048-3.114-5.103-3.039-8.459
		c0.056-2.478,1.076-4.863,3.039-7.115c1.965,2.252,2.984,4.637,3.041,7.115C31.182,18.33,29.539,21.385,28.065,23.433z"/>
</g>
<g>
</g>
<g>
</g>
<g>
</g>
<g>
</g>
<g>
</g>
<g>
</g>
<g>
</g>
<g>
</g>
<g>
</g>
<g>
</g>
<g>
</g>
<g>
</g>
<g>
</g>
<g>
</g>
<g>
</g>
</svg>
