<?xml version="1.0" encoding="iso-8859-1"?>
<!-- Generator: Adobe Illustrator 16.0.0, SVG Export Plug-In . SVG Version: 6.00 Build 0)  -->
<!DOCTYPE svg PUBLIC "-//W3C//DTD SVG 1.1//EN" "http://www.w3.org/Graphics/SVG/1.1/DTD/svg11.dtd">
<svg version="1.1" id="Capa_1" xmlns="http://www.w3.org/2000/svg" xmlns:xlink="http://www.w3.org/1999/xlink" x="0px" y="0px"
	 width="41.695px" height="41.695px" viewBox="0 0 41.695 41.695" style="enable-background:new 0 0 41.695 41.695;"
	 xml:space="preserve">
<g>
	<g>
		<path d="M35.659,10.852h-1.468V8.567h4.822c1.234,0,2.235-1.023,2.235-2.283c0-1.263-1.001-2.286-2.235-2.286H9.094V2.285
			C9.094,1.023,8.093,0,6.858,0C5.625,0,4.623,1.023,4.623,2.285v1.713h-1.94c-1.235,0-2.236,1.023-2.236,2.286
			c0,1.26,1.001,2.283,2.236,2.283h1.94V39.41c0,1.263,1.001,2.285,2.236,2.285c1.234,0,2.235-1.022,2.235-2.285V8.567h9.449v2.285
			h-1.469c-3.082,0-5.589,2.562-5.589,5.712v8.567c0,3.146,2.508,5.711,5.589,5.711h18.585c3.082,0,5.589-2.562,5.589-5.711v-8.567
			C41.248,13.415,38.741,10.852,35.659,10.852z M23.013,8.567h6.707v2.285h-6.707V8.567z M16.928,24.521
			c-0.797,0-1.583-0.213-1.976-0.436l0.321-1.332c0.424,0.223,1.075,0.443,1.749,0.443c0.724,0,1.107-0.307,1.107-0.771
			c0-0.443-0.331-0.697-1.169-1.004c-1.159-0.414-1.914-1.067-1.914-2.104c0-1.216,0.994-2.146,2.638-2.146
			c0.786,0,1.366,0.17,1.779,0.359l-0.353,1.303c-0.278-0.141-0.775-0.341-1.458-0.341c-0.683,0-1.014,0.317-1.014,0.688
			c0,0.453,0.394,0.654,1.293,1.004c1.231,0.464,1.81,1.119,1.81,2.124C19.741,23.506,18.842,24.521,16.928,24.521z M24.968,24.415
			l-0.539-1.828h-1.996l-0.496,1.828h-1.634l2.129-7.124h2.069l2.162,7.124H24.968z M27.601,24.415v-7.124h1.582v5.771h2.771v1.353
			H27.601z M37.335,24.415H32.89v-7.124h4.303v1.322h-2.721v1.479h2.563v1.311h-2.563v1.691h2.863V24.415z"/>
		<path d="M23.416,18.496h-0.021c-0.104,0.422-0.207,0.961-0.32,1.374l-0.414,1.512h1.542l-0.435-1.512
			C23.644,19.447,23.519,18.919,23.416,18.496z"/>
	</g>
</g>
<g>
</g>
<g>
</g>
<g>
</g>
<g>
</g>
<g>
</g>
<g>
</g>
<g>
</g>
<g>
</g>
<g>
</g>
<g>
</g>
<g>
</g>
<g>
</g>
<g>
</g>
<g>
</g>
<g>
</g>
</svg>
